<svg id="Group_9" data-name="Group 9" xmlns="http://www.w3.org/2000/svg" xmlns:xlink="http://www.w3.org/1999/xlink" width="375" height="291.31" viewBox="0 0 375 291.31">
  <defs>
    <linearGradient id="linear-gradient" x1="-0.021" y1="-0.05" x2="1" y2="1.028" gradientUnits="objectBoundingBox">
      <stop offset="0" stop-color="#77aeff"/>
      <stop offset="1" stop-color="#0968f9"/>
    </linearGradient>
    <linearGradient id="linear-gradient-2" x1="0.543" y1="0.263" x2="0.5" y2="1" gradientUnits="objectBoundingBox">
      <stop offset="0" stop-color="#fff"/>
      <stop offset="1" stop-color="#d5d5d5"/>
    </linearGradient>
    <linearGradient id="linear-gradient-3" x1="0.5" x2="0.5" y2="1" gradientUnits="objectBoundingBox">
      <stop offset="0" stop-color="#fff"/>
      <stop offset="1" stop-color="#c8c8c8"/>
    </linearGradient>
  </defs>
  <path id="Path_8" data-name="Path 8" d="M0,0H375V259.663s-84.6,21.369-183.387,23.924S0,260.533,0,260.533Z" fill="url(#linear-gradient)"/>
  <path id="Path_7" data-name="Path 7" d="M25.412,0H170.773a24.227,24.227,0,0,1,0,48.454H25.412c-7.132,0-33.126,3.675-33.126,3.675s8.077-17.728,8.9-27.9A24.227,24.227,0,0,1,25.412,0Z" transform="translate(160 60.057)" fill="#fff"/>
  <text id="GOOD_MORNING" data-name="GOOD MORNING" transform="translate(190 92)" fill="#707070" font-size="16" font-family="Poppins-Regular, Poppins"><tspan x="0" y="0">GOOD MORNING</tspan></text>
  <g id="doctor" transform="translate(-60.146 29)">
    <path id="Path_498" data-name="Path 498" d="M220,249.429h32.747l.179,2.238-16,24.261-17.191-24.5.268-2h0Z" transform="translate(-75.524 -103.954)" fill="#b3b3b3"/>
    <path id="Path_499" data-name="Path 499" d="M193.072,235.328l-.284,13.685-23.218,12.7v46.537h78.167V261.709L226.159,248.3l-1.185-13.683-31.9.713h0Z" transform="translate(-48.383 -95.938)" fill="#f0ba7d"/>
    <path id="Path_500" data-name="Path 500" d="M189.842,108.6s-1.331-2.925-4.906-1.476.161,15.9,1.527,17.92,3.563.734,4.363.656c1.138,8.617,1.239,14.556,4.689,18.19,3.267,3.442,10.747,10.452,14.686,12.9a42.531,42.531,0,0,0,6.535.994,42.643,42.643,0,0,0,6.533-.994c3.94-2.444,11.421-9.454,14.686-12.9,3.449-3.633,3.551-9.571,4.689-18.19.8.08,3,1.36,4.363-.656s5.1-16.472,1.527-17.92-4.906,1.476-4.906,1.476a31,31,0,0,0-2.747-22.524c-4.3-7.658-14.119-11.63-24.145-11.922-10.026.291-19.842,4.263-24.146,11.921A30.993,30.993,0,0,0,189.842,108.6Z" transform="translate(-55.882 -9.124)" fill="#fed298"/>
    <path id="Path_501" data-name="Path 501" d="M168.471,267.415l5.56-2.19,4.481-4.026,15.82,12h3.94L214.1,261.184l10.039,6.232,17.445,29.653L225.35,363.123s-53.4-5.082-72.333-9.328l-7.347-54.357,22.8-32.023Z" transform="translate(-35.452 -110.314)" fill="#708cb1"/>
    <g id="Group_256" data-name="Group 256" transform="translate(138.083 145.475)">
      <path id="Path_502" data-name="Path 502" d="M281.079,257.305l-6.387-7.876-14.4,17.409,12.362,13.736Z" transform="translate(-235.55 -249.429)" fill="#284858"/>
      <path id="Path_503" data-name="Path 503" d="M206.384,257.167l6.4-7.738,14.4,17.409-12.851,13.595Z" transform="translate(-206.384 -249.429)" fill="#284858"/>
    </g>
    <path id="Path_504" data-name="Path 504" d="M138.084,266.289,95.748,280.057a4.777,4.777,0,0,0-3.153,3.8l-12.449,65.63s16.845,3.838,32.076,6.458l2.482-9.37a.5.5,0,0,1,.969.116l1.551,10.119c10.371,1.824,22.413,3.6,22.413,3.6l17.182,2.41-18.735-96.532Z" transform="translate(0 -113.076)" fill="url(#linear-gradient-2)"/>
    <g id="Group_257" data-name="Group 257" transform="translate(120.389 153.213)">
      <path id="Path_505" data-name="Path 505" d="M185.526,266.289l-4.849,1.49L167.831,289.7l16.217.508-9.956,5.668,30.184,66.767,2.219.278-20.967-96.63Z" transform="translate(-167.831 -266.289)" fill="url(#linear-gradient-3)"/>
      <path id="Path_506" data-name="Path 506" d="M278.758,266.591l42.348,13.631a4.766,4.766,0,0,1,3.152,3.8l17.564,83.921c-16.845.3-33.344-.437-33.344-.437l-6.332-20.763a.5.5,0,0,0-.968.116l-1.231,20.225c-15.184-.825-19.127-1.289-29.906-2.25l-12.3-1.281,21.013-96.959Z" transform="translate(-215.535 -266.452)" fill="url(#linear-gradient-3)"/>
    </g>
    <path id="Path_507" data-name="Path 507" d="M278.758,266.591l2.692.819,15,22.589-16.217.507,9.959,5.669L256,371.344l22.758-104.751h0Z" transform="translate(-95.146 -113.239)" fill="#fff"/>
    <path id="Path_509" data-name="Path 509" d="M242.831,102.861l2.491-.087.8-2.843,2.347-2.341c1.55-11.67,2.007-29.832-9.577-29.309,0,0-1.045-13.243-21.938-10.648S186.62,73.718,187.744,84.973s.671,12.617.671,12.617l2.347,2.341.354,3.234,2.049-.129A52.133,52.133,0,0,1,194.45,96.8a21.119,21.119,0,0,0,.442-5.757s24.68,1.572,31.349-6.911C230.36,78.9,239.82,69.818,240.3,82.39c.141,3.728-1.245,9.317,1.408,13.382s1.125,7.088,1.125,7.088h0Z" transform="translate(-58.168 0)" fill="#4b3f32"/>
    <path id="Path_510" data-name="Path 510" d="M246.528,374.326l3.467.343,4.944-22.791-4.534-60.526,2.47-1.056-2.64-2.933h-3.941l-2.708,2.865,2.542,1.123-4.419,61.016,4.819,21.959Z" transform="translate(-87.414 -124.478)" fill="#1e4959"/>
    <path id="Path_511" data-name="Path 511" d="M263.193,493.762a2.349,2.349,0,1,0,2.356,2.347A2.349,2.349,0,0,0,263.193,493.762Z" transform="translate(-97.771 -236.15)" fill="#fff"/>
    <path id="Path_512" data-name="Path 512" d="M338.147,389.344a8.425,8.425,0,1,1,9.732-6.869,8.425,8.425,0,0,1-9.732,6.869Z" transform="translate(-135.806 -170.604)" fill="#fefefe"/>
    <path id="Path_513" data-name="Path 513" d="M338.811,389.438a7.935,7.935,0,1,1,9.169-6.471A7.935,7.935,0,0,1,338.811,389.438Z" transform="translate(-136.387 -171.181)" fill="#d1d1d1"/>
    <path id="Path_514" data-name="Path 514" d="M343.593,390.123a4.39,4.39,0,1,1,5.073-3.58A4.39,4.39,0,0,1,343.593,390.123Z" transform="translate(-140.567 -175.36)" fill="#ebecec"/>
    <path id="Path_515" data-name="Path 515" d="M349.015,375.495l1.928.333,1.037-6.008-1.928-.333Z" transform="translate(-145.472 -168.911)" fill="#fefefe"/>
    <path id="Path_516" data-name="Path 516" d="M164.548,363.031l3.615-.717a5.707,5.707,0,0,0,4.476-6.693L168.387,334.2c-1.606-8.082-7.927-12.2-15.152-13.117a27.257,27.257,0,0,0-16.449,3.259c-6.312,3.6-10.566,9.811-8.96,17.906l4.251,21.419a5.683,5.683,0,0,0,2.424,3.619h0a5.67,5.67,0,0,0,4.268.857l3.613-.717-.3-1.49-3.614.717a4.169,4.169,0,0,1-3.131-.627h0a4.169,4.169,0,0,1-1.778-2.653l-4.251-21.419c-1.458-7.345,2.44-13.007,8.215-16.293a25.706,25.706,0,0,1,15.516-3.075c6.613.836,12.4,4.581,13.85,11.912l4.252,21.419a4.185,4.185,0,0,1-3.284,4.907l-3.615.717.3,1.49v0h0Z" transform="translate(-25.613 -142.622)" fill="#cecece"/>
    <path id="Path_517" data-name="Path 517" d="M168.933,336.78l-.649-3.271c-1.652-8.333-8.159-12.58-15.586-13.52a27.758,27.758,0,0,0-16.758,3.322c-6.492,3.7-10.865,10.1-9.208,18.445l.65,3.271,2.481-.494-.649-3.271c-1.408-7.094,2.372-12.572,7.968-15.758a25.233,25.233,0,0,1,15.207-3.014C158.8,323.3,164.4,326.918,165.8,334l.649,3.271,2.482-.493Z" transform="translate(-25.015 -142.027)" fill="#4d4d4d"/>
    <g id="Group_258" data-name="Group 258" transform="translate(113.487 217.993)">
      <path id="Path_518" data-name="Path 518" d="M153.209,419.616l1.934-.384a2.124,2.124,0,1,0-.418-2.107l-1.933.383.418,2.107Z" transform="translate(-152.793 -411.907)" fill="#d1d1d1"/>
      <path id="Path_519" data-name="Path 519" d="M204.441,409.874l-1.932.384a2.124,2.124,0,1,1-.419-2.107l1.933-.384Z" transform="translate(-177.457 -407.438)" fill="#d1d1d1"/>
    </g>
    <path id="Path_520" data-name="Path 520" d="M163.131,316.149l-.738-3.717-1.469.291-1.465.29.746,3.752q.838-.245,1.695-.413C162.31,316.272,162.719,316.205,163.131,316.149Z" transform="translate(-42.913 -138.041)" fill="#666"/>
    <path id="Path_523" data-name="Path 523" d="M343.315,390.6a4.152,4.152,0,1,1,4.8-3.386,4.152,4.152,0,0,1-4.8,3.386Z" transform="translate(-140.523 -175.873)" fill="#fefefe"/>
    <g id="Group_260" data-name="Group 260" transform="translate(116.453 152.172)">
      <path id="Path_524" data-name="Path 524" d="M180.907,266.176c-.065,0-22.883.19-19.029,20.153l-2.122.406c-4.345-22.506,21.054-22.713,21.126-22.714Z" transform="translate(-159.256 -264.021)" fill="#4d4d4d"/>
      <path id="Path_525" data-name="Path 525" d="M305.585,264.241a21.6,21.6,0,0,1,16.459,7.853c5.421,6.594,9.221,18.7,6.379,40.905l-2.139-.27c2.75-21.489-.8-33.059-5.9-39.265a19.483,19.483,0,0,0-14.844-7.068l.051-2.157Z" transform="translate(-238.401 -264.139)" fill="#4d4d4d"/>
    </g>
  </g>
</svg>
